:version 1.10
:name ASF
:units
  mass 1
  length 1
  angle deg
:documentation
  ASF file generated by Kaydara
:root
  axis xyz
  order  tx ty tz rx ry rz
  position 0 0 0
  orientation 0 0 0
:bonedata
  begin
    id 1
    name RightUpLegDummy
    direction -1 2.30186e-007 8.31532e-007
    length 4.46685
    axis 0 0 0 xyz
  end
  begin
    id 2
    name RightUpLeg
    direction -2.30187e-007 -1 1.24343e-010
    length 16.4045
    axis -3.49089 -0.000906625 0.000286804 xyz
    dof rx ry rz
  end
  begin
    id 3
    name RightLeg
    direction -2.30181e-007 -1 -4.17157e-009
    length 17.5097
    axis 3.68512 0.0193738 -0.131023 xyz
    dof rx ry rz
  end
  begin
    id 4
    name RightFoot
    direction 8.31421e-007 -4.51202e-011 1
    length 6.49508
    axis 4.81691e-005 -0.120479 -0.188788 xyz
    dof rx ry rz
  end
  begin
    id 5
    name RightToes
    direction 0.00124746 -0.014064 0.9999
    length 3.85082
    axis 0.000481921 0.542163 -0.142578 xyz
    dof rx ry rz
  end
  begin
    id 6
    name SpineDummy
    direction 0.0717043 0.9409 -0.331007
    length 10.0032
    axis 0 0 0 xyz
  end
  begin
    id 7
    name Spine
    direction 2.30186e-007 1 4.58806e-011
    length 9.84055
    axis -0.001389 0.000121418 2.40972e-006 xyz
    dof rx ry rz
  end
  begin
    id 8
    name Spine1
    direction 0 0 0
    length 0
    axis -0.001389 0.000121451 1.30017e-006 xyz
    dof rx ry rz
  end
  begin
    id 9
    name HEadDummy
    direction -0.00347485 0.950688 -0.310128
    length 8.00997
    axis -0.001389 0.000121451 1.30017e-006 xyz
  end
  begin
    id 10
    name HEad
    direction -0.0222688 0.980941 0.193023
    length 5.12695
    axis -0.001389 0.000121451 1.30017e-006 xyz
    dof rx ry rz
  end
  begin
    id 11
    name LeftShoulder1Dummy
    direction 0.988871 0.146793 -0.0242004
    length 3.5792
    axis -0.001389 0.000121451 1.30017e-006 xyz
  end
  begin
    id 12
    name LeftShoulder1
    direction 0.993832 0.108932 0.020779
    length 4.16823
    axis -0.001389 0.000121451 1.30017e-006 xyz
    dof rx ry rz
  end
  begin
    id 13
    name LeftArm
    direction 1 3.44807e-006 -8.31404e-007
    length 9.91437
    axis -23.1894 0.134784 0.967509 xyz
    dof rx ry rz
  end
  begin
    id 14
    name LeftForeArm
    direction 1 3.44842e-006 -8.31581e-007
    length 9.08575
    axis -9.91835 -0.06569 -0.177793 xyz
    dof rx ry rz
  end
  begin
    id 15
    name LeftHand
    direction 0.992938 -0.0411636 0.11126
    length 5.32135
    axis -0.00960232 -0.00340091 0.185173 xyz
    dof rx ry rz
  end
  begin
    id 16
    name RightShoulderDummy
    direction -0.988871 0.146793 -0.0241962
    length 3.5792
    axis -0.001389 0.000121451 1.30017e-006 xyz
  end
  begin
    id 17
    name RightShoulder
    direction -0.993832 0.108933 0.0207785
    length 4.16823
    axis 0.215806 0.000203643 -0.0068026 xyz
    dof rx ry rz
  end
  begin
    id 18
    name RightArm
    direction -1 3.90912e-006 8.31284e-007
    length 9.91437
    axis -23.2009 -0.134239 -0.964101 xyz
    dof rx ry rz
  end
  begin
    id 19
    name RightForeArm
    direction -1 3.90882e-006 8.31502e-007
    length 9.08575
    axis -9.92322 0.0658061 0.178867 xyz
    dof rx ry rz
  end
  begin
    id 20
    name RightHand
    direction -0.992843 -0.0414603 0.112003
    length 5.28593
    axis -0.00960638 0.00330671 -0.185228 xyz
    dof rx ry rz
  end
  begin
    id 21
    name LeftUpLegDummy
    direction 1 -2.30186e-007 -8.31532e-007
    length 4.46685
    axis 0 0 0 xyz
  end
  begin
    id 22
    name LeftUpLeg
    direction -2.30187e-007 -1 6.00931e-010
    length 16.4045
    axis -3.48766 0.00143442 -0.000524262 xyz
    dof rx ry rz
  end
  begin
    id 23
    name LeftLeg
    direction -2.30187e-007 -1 1.6669e-009
    length 17.5097
    axis 3.68178 -0.00654042 -0.000285133 xyz
    dof rx ry rz
  end
  begin
    id 24
    name LeftFoot
    direction 8.31532e-007 -4.54478e-011 1
    length 6.49508
    axis 1.87233e-006 4.66016e-005 -8.6538e-006 xyz
    dof rx ry rz
  end
  begin
    id 25
    name LeftToes
    direction 0.00818058 -0.00485161 0.999955
    length 3.85048
    axis 1.06247e-005 4.65869e-005 -8.65513e-006 xyz
    dof rx ry rz
  end
:hierarchy
  begin
    root RightUpLegDummy SpineDummy LeftUpLegDummy
    RightUpLegDummy RightUpLeg
    RightUpLeg RightLeg
    RightLeg RightFoot
    RightFoot RightToes
    SpineDummy Spine
    Spine Spine1
    Spine1 HEadDummy LeftShoulder1Dummy RightShoulderDummy
    HEadDummy HEad
    LeftShoulder1Dummy LeftShoulder1
    LeftShoulder1 LeftArm
    LeftArm LeftForeArm
    LeftForeArm LeftHand
    RightShoulderDummy RightShoulder
    RightShoulder RightArm
    RightArm RightForeArm
    RightForeArm RightHand
    LeftUpLegDummy LeftUpLeg
    LeftUpLeg LeftLeg
    LeftLeg LeftFoot
    LeftFoot LeftToes
  end

:SAMPLES-PER-SECOND 30
:FULLY-SPECIFIED
:DEGREES
97
root  51.0142 33.7531 0.0589178 -167.727 -20.2283 -177.087
RightUpLeg  -35.0128 5.24857 -6.09122
RightLeg  19.1973 -3.71029 -1.02961
RightFoot  -2.65333 -0.0115931 -0.12307
RightToes  -33.6253 -0.169665 -0.276356
Spine  6.61027 -7.65183 1.20218
Spine1  11.374 -16.2378 1.29134
HEad  27.2589 25.8657 -6.62729
LeftShoulder1  0 -2.42657e-020 -4.95415e-022
LeftArm  -11.4008 -31.5239 -100.557
LeftForeArm  9.66773 -53.0822 -13.5924
LeftHand  0.0133928 1.62034 0.574647
RightShoulder  0 2.42657e-020 1.07489e-018
RightArm  -27.3032 29.0697 72.416
RightForeArm  29.8027 63.2473 20.5839
RightHand  -0.628566 24.2974 -2.54993
LeftUpLeg  -4.29348 -1.70554 -1.88032
LeftLeg  24.2189 -3.45819 -1.29742
LeftFoot  -2.48503 -0.00338829 -0.156228
LeftToes  -16.2094 9.37529e-007 1.1992e-007
98
root  50.9323 33.5726 -2.14939 -167.999 -20.0363 -176.917
RightUpLeg  -35.0227 6.59218 -6.18081
RightLeg  12.9008 -1.12313 -0.181162
RightFoot  -3.20648 -0.0176933 -0.25465
RightToes  -33.2487 -0.16692 -0.273899
Spine  6.47962 -7.40088 1.17135
Spine1  11.1109 -16.0749 1.40846
HEad  27.0516 31.4631 -7.50156
LeftShoulder1  0 -2.42657e-020 -4.95415e-022
LeftArm  0.437419 -37.2782 -103.882
LeftForeArm  7.69305 -46.8182 -10.8312
LeftHand  -0.00124735 0.0135776 -7.19819
RightShoulder  0 2.42657e-020 1.07489e-018
RightArm  -30.4068 36.6193 68.2865
RightForeArm  47.8394 60.5197 18.2421
RightHand  7.9587 21.4702 40.6799
LeftUpLeg  -2.28529 -2.38938 -1.04186
LeftLeg  26.7879 -2.38818 -1.0218
LeftFoot  0.178619 0.000673723 -0.432236
LeftToes  -22.1634 9.37529e-007 1.1992e-007
99
root  50.9047 33.0445 -4.61661 -170.244 -20.1183 -176.101
RightUpLeg  -34.4882 7.90265 -4.36541
RightLeg  15.5056 0.659999 0.138539
RightFoot  -3.1912 -0.0211756 -0.382713
RightToes  -37.4034 -0.19808 -0.299989
Spine  6.80472 -6.80051 1.18191
Spine1  11.6266 -14.6221 1.09011
HEad  26.4646 37.2258 -8.82162
LeftShoulder1  0 -2.42657e-020 -4.95415e-022
LeftArm  8.45936 -37.8685 -107.081
LeftForeArm  -1.93575 -48.1251 -11.3286
LeftHand  0.118893 6.19432 1.82507
RightShoulder  0 2.42657e-020 1.07489e-018
RightArm  -25.7252 35.7738 77.5625
RightForeArm  11.1595 57.1184 15.8723
RightHand  -2.00415 25.7249 -8.39278
LeftUpLeg  0.914441 -3.03259 0.499037
LeftLeg  31.3948 -1.5628 -0.824702
LeftFoot  1.50427 0.00616988 -0.469986
LeftToes  -28.366 9.37529e-007 1.1992e-007
100
root  50.9425 32.3006 -7.17248 -172.748 -20.7592 -174.473
RightUpLeg  -33.6794 5.31415 0.0726201
RightLeg  22.7823 3.02681 1.04468
RightFoot  3.58237 0.0198063 -0.255744
RightToes  -45.6798 -0.265371 -0.344907
Spine  6.91081 -6.11704 1.52599
Spine1  11.7455 -12.8554 1.38126
HEad  26.3208 41.6262 -9.33128
LeftShoulder1  0 -2.42657e-020 -4.95415e-022
LeftArm  11.0364 -36.473 -109.145
LeftForeArm  5.36635 -50.1555 -12.2025
LeftHand  0.0971368 4.37909 2.16682
RightShoulder  0 2.42657e-020 1.07489e-018
RightArm  -30.5965 37.9955 78.1913
RightForeArm  9.47913 54.9689 14.6005
RightHand  -2.84489 30.3939 -10.0782
LeftUpLeg  2.7145 -3.04382 3.36198
LeftLeg  38.6267 -1.55462 -1.09115
LeftFoot  2.10637 0.00841076 -0.457521
LeftToes  -31.6606 9.37529e-007 1.1992e-007
101
root  50.9348 31.4897 -9.57119 -175.792 -22.5136 -173.118
RightUpLeg  -35.2356 -1.12045 4.17242
RightLeg  36.8489 6.95907 4.51157
RightFoot  3.07846 0.0105298 -0.0143104
RightToes  -44.2674 -0.253438 -0.337937
Spine  7.33688 -5.62733 1.95194
Spine1  12.4697 -11.4357 1.67208
HEad  25.2746 44.9163 -11.266
LeftShoulder1  0 -2.42657e-020 -4.95415e-022
LeftArm  13.1271 -35.4235 -108.823
LeftForeArm  7.82118 -52.6884 -13.3919
LeftHand  0.0154237 2.51789 0.330982
RightShoulder  0 2.42657e-020 1.07489e-018
RightArm  -41.3344 41.8649 71.9803
RightForeArm  27.6568 54.406 14.3091
RightHand  2.74409 22.3246 14.2156
LeftUpLeg  2.56823 -4.7896 5.5685
LeftLeg  49.2716 -0.819518 -0.843746
LeftFoot  3.88126 0.0145504 -0.429434
LeftToes  -22.0353 9.37529e-007 1.1992e-007
